<?xml version="1.0" standalone="no"?>
<svg viewBox="0 0 200 200" xmlns="http://www.w3.org/2000/svg">
  <path fill="#0F62FE" d="M37.2,-60.5C42.9,-54.2,38.6,-34.9,35.6,-22C32.6,-9.1,30.9,-2.4,37.3,10.6C43.6,23.7,57.9,43.1,56.3,53.6C54.7,64,37.1,65.3,21.1,68.6C5,71.9,-9.6,77.2,-21.2,73.3C-32.7,69.4,-41.2,56.2,-49.2,44.2C-57.1,32.2,-64.5,21.3,-68.2,8.6C-71.9,-4.1,-72,-18.5,-65.6,-28.9C-59.2,-39.3,-46.3,-45.6,-34.3,-49C-22.3,-52.5,-11.1,-52.9,2.3,-56.5C15.7,-60,31.5,-66.7,37.2,-60.5Z" transform="translate(100 100)" />
</svg>
